<svg width="375" height="92" viewBox="0 0 375 92" fill="none" xmlns="http://www.w3.org/2000/svg">
<path d="M125.704 -18.4081C117.869 -15.0965 116.285 -7.94888 119.025 -6.06245C121.766 -4.17602 119.71 -2.80465 123.478 -1.08991C127.246 0.6244 129.472 3.71092 131.87 2.51125C134.267 1.31029 141.117 -7.94888 137.864 -14.1215C134.609 -20.2946 133.411 -21.6664 125.704 -18.4081Z" fill="#112950" fill-opacity="0.05"/>
<path d="M-5.58958 0.286397C-11.288 3.43827 -10.2139 9.37344 -9.01531 9.88808C-7.81667 10.4031 -4.7339 12.1175 2.45922 6.97323C9.65191 1.82987 8.28222 0.800601 6.39767 -1.0854C4.51482 -2.9714 0.917624 -3.31477 -5.58958 0.286397Z" fill="#112950" fill-opacity="0.05"/>
<path d="M42.5042 32.5983C40.0929 35.8753 37.1641 46.0771 42.3507 44.8342C47.5373 43.5914 41.6934 51.4673 52.6087 43.1844C63.5244 34.9024 57.8993 29.4447 54.2996 29.0343C50.7015 28.623 45.7457 28.1946 42.5042 32.5983Z" fill="#112950" fill-opacity="0.05"/>
<path d="M130.127 10.7375C128.745 11.8172 127.136 12.0657 126.534 11.2919C125.933 10.5193 127.009 9.68263 128.392 8.60339C129.774 7.52458 130.941 6.61147 131.542 7.38406C132.143 8.15708 131.51 9.65828 130.127 10.7375Z" fill="#112950" fill-opacity="0.05"/>
<path d="M32.2751 22.1677C30.8926 23.247 29.2836 23.4951 28.6826 22.7221C28.0807 21.9499 29.1565 21.1128 30.5394 20.034C31.9223 18.9548 33.0886 18.0413 33.69 18.8151C34.2919 19.5873 33.658 21.0889 32.2751 22.1677Z" fill="#112950" fill-opacity="0.05"/>
<path d="M32.8735 151.601C31.491 152.68 29.882 152.929 29.2802 152.157C28.6783 151.383 29.7549 150.547 31.1383 149.467C32.5208 148.388 33.6866 147.475 34.2884 148.248C34.8903 149.021 34.2564 150.521 32.8735 151.601Z" fill="#112950" fill-opacity="0.05"/>
<path d="M104.08 11.9844C96.7078 15.8926 94.0648 20.1033 94.7797 22.2519C95.4951 24.4006 92.1564 34.1902 98.8338 33.4744C105.511 32.7582 123.159 22.9677 120.536 16.5205C117.913 10.0741 111.236 15.5655 111.236 13.1777C111.236 10.7894 108.135 9.83489 104.08 11.9844Z" fill="#112950" fill-opacity="0.05"/>
<path d="M155.18 104.408C148.362 108.022 145.917 111.916 146.579 113.902C147.24 115.89 144.152 124.944 150.328 124.282C156.504 123.619 172.826 114.565 170.399 108.602C167.973 102.64 161.798 107.719 161.798 105.511C161.798 103.302 158.931 102.419 155.18 104.408Z" fill="#112950" fill-opacity="0.05"/>
<path d="M122.236 33.5637C118.632 35.6867 117.098 39.3938 119.496 40.0788C121.893 40.7656 120.352 44.3655 124.462 41.2798C128.573 38.1928 128.059 30.1342 122.236 33.5637Z" fill="#112950" fill-opacity="0.05"/>
<path d="M96.9595 10.5933C95.5766 11.6726 93.968 11.9207 93.3661 11.1485C92.7642 10.3751 93.8409 9.53887 95.2234 8.4592C96.6063 7.38039 97.7721 6.4673 98.374 7.23989C98.9758 8.01291 98.3424 9.5141 96.9595 10.5933Z" fill="#112950" fill-opacity="0.05"/>
<path d="M75.6529 30.9608C74.3113 34.2797 68.1168 36.9618 71.7136 40.9059C75.3103 44.8491 81.1325 37.8193 82.846 34.0473C84.5578 30.2749 78.5646 23.7589 75.6529 30.9608Z" fill="#112950" fill-opacity="0.05"/>
<path d="M142.121 12.1522C140.779 15.4706 134.585 18.1532 138.181 22.0973C141.778 26.0405 147.601 19.0107 149.313 15.2383C151.025 11.4663 145.032 4.95031 142.121 12.1522Z" fill="#112950" fill-opacity="0.05"/>
<path d="M70.8548 -8.27564C65.4029 -5.00119 61.0929 2.86953 71.0259 3.89922C80.9584 4.92764 87.2958 3.89837 87.4665 -0.559521C87.6379 -5.01827 81.8149 -3.989 79.4172 -7.07553C77.0199 -10.1616 72.567 -9.30406 70.8548 -8.27564Z" fill="#112950" fill-opacity="0.05"/>
<path d="M38.7546 61.4791C36.2357 53.9146 22.1442 53.7438 15.1917 64.5725C8.23831 75.4016 2.44473 83.9096 7.85269 88.5507C13.2615 93.1922 23.3028 81.5896 28.3247 78.4954C33.3458 75.4016 41.4573 69.6001 38.7546 61.4791Z" fill="#112950" fill-opacity="0.05"/>
<path d="M142.476 30.7795C134.642 34.0916 133.057 41.2392 135.797 43.1252C138.538 45.0112 136.482 46.383 140.25 48.0982C144.018 49.8129 146.244 52.8995 148.642 51.6981C151.04 50.4988 157.89 41.2392 154.636 35.0662C151.382 28.8935 150.183 27.5217 142.476 30.7795Z" fill="#112950" fill-opacity="0.05"/>
<path d="M97.8209 45.1269C92.5256 47.9333 90.6278 50.957 91.1414 52.5005C91.655 54.0431 89.2577 61.0733 94.0522 60.5591C98.8481 60.0449 111.522 53.0147 109.638 48.3851C107.753 43.7551 102.958 47.6979 102.958 45.9845C102.958 44.2693 100.733 43.5843 97.8209 45.1269Z" fill="#112950" fill-opacity="0.05"/>
<path d="M139.093 62.6175C136.273 65.9548 135.155 69.4769 136.525 70.6762C137.894 71.8771 135.839 76.8501 140.121 74.792C144.402 72.7351 151.252 66.5617 150.909 63.1318C150.568 59.7031 147.485 58.5026 145.259 59.3593C143.032 60.2173 140.976 60.3882 139.093 62.6175Z" fill="#112950" fill-opacity="0.05"/>
<path d="M155.853 80.5749C150.155 83.7272 151.228 89.6624 152.427 90.177C153.626 90.6925 156.708 92.4064 163.902 87.2617C171.094 82.1192 169.724 81.0891 167.84 79.2031C165.956 77.3175 162.359 76.9742 155.853 80.5749Z" fill="#112950" fill-opacity="0.05"/>
<path d="M167.473 42.1023C161.775 45.2546 162.849 51.1897 164.047 51.704C165.246 52.2199 168.328 53.9338 175.522 48.7895C182.714 43.6466 181.344 42.6169 179.46 40.7305C177.576 38.8445 173.979 38.502 167.473 42.1023Z" fill="#112950" fill-opacity="0.05"/>
<path d="M120.505 58.0789C116.901 60.2019 115.367 63.9094 117.765 64.5949C120.163 65.2812 118.621 68.8815 122.731 65.7954C126.843 62.7089 126.329 54.6503 120.505 58.0789Z" fill="#112950" fill-opacity="0.05"/>
<path d="M116.787 110.155C114.144 112.625 109.919 121.065 114.656 120.827C119.393 120.59 112.999 126.519 123.894 121.065C134.791 115.609 130.764 109.918 127.684 108.969C124.604 108.021 120.342 106.835 116.787 110.155Z" fill="#112950" fill-opacity="0.05"/>
<path d="M117.425 82.5341C114.83 84.5576 111.814 85.0244 110.686 83.5757C109.559 82.1266 111.575 80.5575 114.168 78.534C116.762 76.5101 118.949 74.7992 120.076 76.2478C121.205 77.6974 120.017 80.5101 117.425 82.5341Z" fill="#112950" fill-opacity="0.05"/>
<path d="M180.998 89.5063C177.393 91.6289 175.86 95.3364 178.257 96.0214C180.655 96.7078 179.114 100.308 183.223 97.2224C187.334 94.135 186.82 86.0764 180.998 89.5063Z" fill="#112950" fill-opacity="0.05"/>
<path d="M134.114 84.5713C128.327 87.9798 125.862 93.9338 129.713 95.034C133.563 96.1367 131.089 101.919 137.689 96.9627C144.291 92.0055 143.466 79.0623 134.114 84.5713Z" fill="#112950" fill-opacity="0.05"/>
<path d="M182.915 18.1287C179.311 20.2517 177.777 23.9588 180.176 24.6451C182.573 25.331 181.031 28.9313 185.142 25.8452C189.252 22.7587 188.739 14.7001 182.915 18.1287Z" fill="#112950" fill-opacity="0.05"/>
<path d="M-6.61888 31.2156C-2.46032 30.7791 0.470169 28.0424 -1.42803 26.4224C-3.32581 24.8034 -0.432013 22.1665 -5.45095 23.2688C-10.4695 24.3716 -13.3385 31.9186 -6.61888 31.2156Z" fill="#112950" fill-opacity="0.05"/>
<path d="M175.686 136.894C174.302 137.974 172.694 138.222 172.091 137.45C171.49 136.677 172.566 135.84 173.95 134.761C175.332 133.681 176.499 132.769 177.1 133.542C177.702 134.314 177.069 135.814 175.686 136.894Z" fill="#112950" fill-opacity="0.05"/>
<path d="M168.444 26.7882C167.062 27.8678 165.453 28.1164 164.85 27.3434C164.249 26.5708 165.325 25.7341 166.707 24.6549C168.091 23.5752 169.257 22.663 169.858 23.4355C170.459 24.2086 169.827 25.7093 168.444 26.7882Z" fill="#112950" fill-opacity="0.05"/>
<path d="M163.241 3.28894C162.39 6.45234 165.296 12.8906 170.09 12.8906C174.887 12.8906 175.571 9.80495 179.511 9.1182C183.45 8.43315 183.45 1.74632 178.141 1.40294C172.831 1.05957 164.439 -1.16938 163.241 3.28894Z" fill="#112950" fill-opacity="0.05"/>
<path d="M128.2 136.232C125.546 138.891 125.118 141.891 126.831 143.777C128.544 145.663 131.626 141.033 134.881 139.833C138.134 138.633 138.305 134.003 135.224 132.631C132.14 131.259 130.427 134.003 128.2 136.232Z" fill="#112950" fill-opacity="0.05"/>
<path d="M191.716 59.6509C190.598 56.2965 184.352 56.2205 181.268 61.0218C178.187 65.8235 175.616 69.5955 178.014 71.6528C180.413 73.7113 184.865 68.5671 187.092 67.1953C189.317 65.8235 192.914 63.2507 191.716 59.6509Z" fill="#112950" fill-opacity="0.05"/>
<path d="M6.08904 41.4399C2.47307 47.6937 -7.88856 48.0691 -4.21031 52.243C-0.532062 56.4165 12.9546 49.0518 17.6135 49.0518C22.2728 49.0518 26.9317 42.9133 25.7058 38.739C24.4803 34.5669 8.78619 36.7757 6.08904 41.4399Z" fill="#112950" fill-opacity="0.05"/>
<path d="M49.508 -9.58177C49.3579 -5.36645 45.0552 -2.72238 47.2822 1.56383C49.508 5.85089 57.8998 -0.836808 60.1269 -4.60881C62.3531 -8.38124 61.8387 -13.0108 59.6124 -14.2109C57.3862 -15.4115 49.6795 -14.3826 49.508 -9.58177Z" fill="#112950" fill-opacity="0.05"/>
<path d="M20.0507 10.3154C17.5609 8.48658 13.2005 9.8003 11.8304 13.5727C10.4603 17.3452 11.1445 20.4313 14.0562 22.1464C16.9684 23.8607 16.4548 19.9171 19.1942 17.6881C21.9344 15.4587 22.619 12.2005 20.0507 10.3154Z" fill="#112950" fill-opacity="0.05"/>
<path d="M3.8477 98.5482C-1.85032 101.7 -0.776659 107.635 0.422409 108.149C1.62105 108.665 4.70382 110.379 11.8965 105.235C19.0892 100.092 17.7195 99.0624 15.835 97.1764C13.9521 95.29 10.3553 94.9479 3.8477 98.5482Z" fill="#112950" fill-opacity="0.05"/>
<path d="M-10.2472 138.053C-12.3642 141.521 -19.6666 143.712 -16.0694 148.513C-12.4734 153.313 -8.53414 145.77 -4.08125 145.083C0.370785 144.398 0.0282536 138.397 -1.34144 136.853C-2.71198 135.309 -8.36351 134.967 -10.2472 138.053Z" fill="#112950" fill-opacity="0.05"/>
<path d="M20.7861 116.967C18.2962 115.139 13.9359 116.452 12.5658 120.225C11.1957 123.997 11.8799 127.084 14.7916 128.799C17.7037 130.513 17.1897 126.569 19.9295 124.341C22.6702 122.111 23.3544 118.853 20.7861 116.967Z" fill="#112950" fill-opacity="0.05"/>
<path d="M164.358 142.206C161.868 140.377 157.507 141.691 156.137 145.463C154.767 149.236 155.451 152.322 158.363 154.037C161.275 155.752 160.761 151.808 163.501 149.579C166.242 147.35 166.926 144.091 164.358 142.206Z" fill="#112950" fill-opacity="0.05"/>
<path d="M85.2529 70.7852C82.4329 74.1233 81.3149 77.645 82.685 78.8447C84.0543 80.0452 81.9995 85.0186 86.2805 82.9596C90.5619 80.9028 97.4125 74.7301 97.07 71.3002C96.7279 67.8708 93.6451 66.6711 91.4185 67.5282C89.1918 68.385 87.1366 68.5571 85.2529 70.7852Z" fill="#112950" fill-opacity="0.05"/>
<path d="M50.4366 93.6655C44.4719 96.9447 37.5702 101.231 37.7293 105.246C37.8879 109.26 46.1645 113.41 54.9227 111.027C63.6813 108.642 67.7192 102.046 65.0915 97.6182C62.4631 93.1876 56.1717 90.5107 50.4366 93.6655Z" fill="#112950" fill-opacity="0.05"/>
<path d="M94.7734 92.2864C89.0754 95.4382 90.1495 101.373 91.3477 101.888C92.5467 102.403 95.6291 104.117 102.823 98.9736C110.015 93.8299 108.645 92.8006 106.761 90.9146C104.878 89.0282 101.281 88.6861 94.7734 92.2864Z" fill="#112950" fill-opacity="0.05"/>
<path d="M58.6481 57.7035C50.505 62.5001 47.0392 70.876 52.4578 72.4246C57.8735 73.9766 54.3897 82.1104 63.6777 75.1383C72.9657 68.1632 71.8054 49.9536 58.6481 57.7035Z" fill="#112950" fill-opacity="0.05"/>
<path d="M184.224 146.747C180.62 148.87 179.086 152.577 181.484 153.262C183.881 153.949 182.339 157.549 186.45 154.463C190.56 151.376 190.047 143.317 184.224 146.747Z" fill="#112950" fill-opacity="0.05"/>
<path d="M40.7929 128.538C38.6554 130.206 36.1677 130.59 35.2369 129.395C34.3061 128.2 35.9697 126.905 38.1094 125.238C40.2477 123.568 42.0513 122.156 42.9816 123.351C43.9115 124.546 42.9325 126.868 40.7929 128.538Z" fill="#112950" fill-opacity="0.05"/>
<path d="M145.438 153.046C143.3 154.714 140.812 155.098 139.882 153.904C138.951 152.708 140.615 151.414 142.754 149.747C144.893 148.077 146.696 146.665 147.627 147.86C148.557 149.055 147.577 151.376 145.438 153.046Z" fill="#112950" fill-opacity="0.05"/>
<path d="M75.9434 110.558C74.5605 111.637 72.9515 111.885 72.35 111.112C71.7482 110.339 72.8244 109.503 74.2077 108.424C75.5906 107.345 76.7564 106.432 77.3583 107.205C77.9602 107.977 77.3263 109.479 75.9434 110.558Z" fill="#112950" fill-opacity="0.05"/>
<path d="M95.7295 149.794C94.3465 150.873 92.7375 151.121 92.1361 150.349C91.5342 149.576 92.61 148.739 93.9938 147.66C95.3767 146.58 96.5421 145.668 97.144 146.441C97.7459 147.214 97.1124 148.714 95.7295 149.794Z" fill="#112950" fill-opacity="0.05"/>
<path d="M6.86282 151.602C5.47991 152.681 3.87134 152.929 3.26947 152.157C2.66759 151.384 3.7438 150.547 5.12757 149.468C6.51005 148.389 7.67584 147.476 8.27772 148.249C8.8796 149.022 8.24573 150.523 6.86282 151.602Z" fill="#112950" fill-opacity="0.05"/>
<path d="M43.4828 86.8125C42.0999 87.8909 40.4913 88.1399 39.8895 87.3668C39.2876 86.5942 40.3638 85.7576 41.7471 84.6784C43.1301 83.5987 44.2959 82.6864 44.8973 83.459C45.4983 84.2321 44.8658 85.7332 43.4828 86.8125Z" fill="#112950" fill-opacity="0.05"/>
<path d="M57.5628 130.296C53.9251 136.257 41.3735 140.022 47.5561 148.273C53.7366 156.524 60.507 143.559 68.1595 142.379C75.812 141.201 75.2238 130.887 72.8683 128.234C70.5137 125.58 60.8 124.991 57.5628 130.296Z" fill="#112950" fill-opacity="0.05"/>
<path d="M97.2933 118.649C93.5826 115.924 87.0844 117.882 85.0429 123.504C83.0005 129.125 84.0204 133.725 88.3598 136.281C92.7001 138.836 91.934 132.959 96.0166 129.637C100.101 126.314 101.121 121.459 97.2933 118.649Z" fill="#112950" fill-opacity="0.05"/>
<path d="M193.251 125.327C190.761 123.498 186.401 124.812 185.031 128.584C183.66 132.356 184.345 135.443 187.257 137.158C190.168 138.872 189.655 134.929 192.395 132.7C195.135 130.47 195.819 127.212 193.251 125.327Z" fill="#112950" fill-opacity="0.05"/>
<path d="M57.1006 14.2005C55.3944 12.9487 52.4076 13.8477 51.4692 16.4328C50.5303 19.0167 50.9995 21.1307 52.9941 22.3061C54.9887 23.4805 54.6368 20.7784 56.5132 19.2511C58.391 17.7239 58.8602 15.4924 57.1006 14.2005Z" fill="#112950" fill-opacity="0.05"/>
<path d="M372.996 -6.424C365.162 -3.12855 363.577 3.98425 366.318 5.86147C369.058 7.7387 367.003 9.10338 370.771 10.8098C374.538 12.5157 376.765 15.5872 379.162 14.3933C381.56 13.1982 388.409 3.98425 385.156 -2.15827C381.902 -8.30122 380.704 -9.66633 372.996 -6.424Z" fill="#112950" fill-opacity="0.05"/>
<path d="M224.379 -3.28026C221.558 0.0406952 220.44 3.54525 221.81 4.7395C223.18 5.93375 221.125 10.8824 225.406 8.83437C229.688 6.78715 236.538 0.644208 236.196 -2.76812C235.853 -6.18087 232.771 -7.37512 230.544 -6.52215C228.317 -5.66917 226.263 -5.49875 224.379 -3.28026Z" fill="#112950" fill-opacity="0.05"/>
<path d="M241.704 12.1813C236.005 15.3178 237.079 21.224 238.278 21.7361C239.477 22.2487 242.559 23.9546 249.752 18.8355C256.945 13.7172 255.575 12.693 253.691 10.8162C251.808 8.93938 248.211 8.59768 241.704 12.1813Z" fill="#112950" fill-opacity="0.05"/>
<path d="M262.246 -9.41975C260.335 -7.6424 257.279 -1.57043 260.704 -1.74128C264.13 -1.9117 259.505 2.3536 267.384 -1.57043C275.261 -5.49488 272.35 -9.5906 270.123 -10.2732C267.897 -10.9553 264.814 -11.8091 262.246 -9.41975Z" fill="#112950" fill-opacity="0.05"/>
<path d="M289.798 44.3337C287.387 47.5947 284.458 57.7467 289.645 56.5099C294.831 55.2732 288.988 63.1106 299.903 54.8682C310.819 46.6265 305.194 41.1955 301.594 40.787C297.996 40.3778 293.04 39.9515 289.798 44.3337Z" fill="#112950" fill-opacity="0.05"/>
<path d="M377.42 22.5784C376.038 23.6528 374.429 23.9001 373.827 23.13C373.226 22.3612 374.302 21.5286 375.685 20.4547C377.068 19.3811 378.234 18.4725 378.835 19.2413C379.436 20.0105 378.804 21.5044 377.42 22.5784Z" fill="#112950" fill-opacity="0.05"/>
<path d="M185.359 65.7659C183.976 66.8403 182.367 67.0876 181.766 66.3179C181.164 65.5491 182.24 64.7165 183.623 63.6426C185.006 62.569 186.172 61.6599 186.774 62.4292C187.375 63.1984 186.742 64.6919 185.359 65.7659Z" fill="#112950" fill-opacity="0.05"/>
<path d="M220.456 17.4711C219.073 18.5442 217.464 18.7911 216.863 18.0227C216.261 17.2539 217.336 16.4213 218.72 15.3473C220.103 14.2733 221.269 13.3651 221.87 14.134C222.473 14.9032 221.839 16.3971 220.456 17.4711Z" fill="#112950" fill-opacity="0.05"/>
<path d="M279.568 33.9509C278.186 35.0249 276.577 35.2718 275.976 34.5026C275.374 33.7342 276.45 32.9012 277.833 31.8276C279.216 30.7536 280.382 29.8446 280.983 30.6147C281.585 31.3831 280.951 32.8774 279.568 33.9509Z" fill="#112950" fill-opacity="0.05"/>
<path d="M351.374 23.8169C344.001 27.7061 341.358 31.8962 342.073 34.0343C342.788 36.1725 339.45 45.9144 346.127 45.2021C352.804 44.4893 370.453 34.7466 367.829 28.3308C365.206 21.9159 358.529 27.3805 358.529 25.0043C358.529 22.6277 355.429 21.6779 351.374 23.8169Z" fill="#112950" fill-opacity="0.05"/>
<path d="M236.087 91.8944C242.293 86.3396 243.837 81.6361 242.622 79.7351C241.408 77.8337 242.275 67.5754 235.971 69.8806C229.667 72.185 214.917 85.9019 219.024 91.4923C223.131 97.0819 228.278 90.1672 228.856 92.4719C229.435 94.7776 232.674 94.9493 236.087 91.8944Z" fill="#112950" fill-opacity="0.05"/>
<path d="M213.856 38.9053C208.651 44.5794 204.273 45.9658 202.518 44.8315C200.762 43.698 191.234 44.4158 193.423 38.6252C195.612 32.8337 208.46 19.3514 213.616 23.1803C218.773 27.0082 212.314 31.6968 214.449 32.2481C216.584 32.7989 216.719 35.7841 213.856 38.9053Z" fill="#112950" fill-opacity="0.05"/>
<path d="M369.529 45.2958C365.925 47.4085 364.392 51.0974 366.789 51.7791C369.187 52.4625 367.645 56.0449 371.756 52.9742C375.866 49.9023 375.352 41.883 369.529 45.2958Z" fill="#112950" fill-opacity="0.05"/>
<path d="M344.257 22.4351C342.874 23.5091 341.265 23.756 340.663 22.9876C340.061 22.2179 341.138 21.3858 342.52 20.3114C343.903 19.2378 345.069 18.3292 345.671 19.098C346.273 19.8673 345.64 21.3611 344.257 22.4351Z" fill="#112950" fill-opacity="0.05"/>
<path d="M322.946 42.7034C321.605 46.0061 315.41 48.6751 319.007 52.6C322.604 56.524 328.426 49.5285 330.139 45.7749C331.851 42.0209 325.858 35.5366 322.946 42.7034Z" fill="#112950" fill-opacity="0.05"/>
<path d="M318.152 3.66147C312.7 6.91994 308.39 14.7523 318.323 15.7769C328.256 16.8003 334.593 15.7761 334.764 11.3399C334.935 6.90295 329.112 7.9272 326.714 4.85572C324.317 1.78467 319.864 2.63807 318.152 3.66147Z" fill="#112950" fill-opacity="0.05"/>
<path d="M360.965 -1.11807C359.901 -3.23839 351.888 -3.50699 348.12 -0.264664C344.353 2.97724 340.927 4.17191 345.723 7.58466C350.518 10.997 353.773 6.90126 357.368 5.19574C360.965 3.48894 362.506 1.95383 360.965 -1.11807Z" fill="#112950" fill-opacity="0.05"/>
<path d="M286.047 73.0705C283.528 65.5429 269.436 65.3729 262.484 76.1488C255.531 86.9251 249.737 95.3915 255.145 100.01C260.554 104.629 270.595 93.0829 275.617 90.0038C280.638 86.9251 288.749 81.1519 286.047 73.0705Z" fill="#112950" fill-opacity="0.05"/>
<path d="M205.398 12.8775C212.244 7.85145 212.119 0.566516 209.015 -0.621359C205.911 -1.80923 207.589 -3.61463 203.526 -4.3979C199.462 -5.18118 196.578 -7.65001 194.527 -5.93045C192.475 -4.21218 187.972 6.34099 192.575 11.557C197.178 16.773 198.664 17.8224 205.398 12.8775Z" fill="#112950" fill-opacity="0.05"/>
<path d="M345.113 56.8009C339.818 59.5936 337.92 62.6026 338.434 64.1385C338.947 65.6736 336.55 72.6695 341.344 72.1578C346.14 71.6461 358.814 64.6502 356.93 60.0432C355.046 55.4358 350.25 59.3594 350.25 57.6543C350.25 55.9475 348.025 55.2658 345.113 56.8009Z" fill="#112950" fill-opacity="0.05"/>
<path d="M367.798 69.6888C364.194 71.8015 362.66 75.4909 365.058 76.1731C367.456 76.856 365.914 80.4388 370.025 77.3677C374.136 74.2962 373.622 66.2769 367.798 69.6888Z" fill="#112950" fill-opacity="0.05"/>
<path d="M364.085 121.513C361.442 123.971 357.217 132.37 361.953 132.133C366.69 131.897 360.296 137.797 371.191 132.37C382.088 126.941 378.061 121.278 374.981 120.333C371.901 119.389 367.639 118.21 364.085 121.513Z" fill="#112950" fill-opacity="0.05"/>
<path d="M364.718 94.0247C362.123 96.0383 359.107 96.5028 357.979 95.0612C356.852 93.6192 358.868 92.0578 361.462 90.0441C364.055 88.03 366.242 86.3275 367.369 87.7691C368.498 89.2115 367.31 92.0106 364.718 94.0247Z" fill="#112950" fill-opacity="0.05"/>
<path d="M381.406 96.0524C375.619 99.4444 373.155 105.369 377.006 106.464C380.855 107.561 378.381 113.316 384.981 108.383C391.583 103.45 390.758 90.5704 381.406 96.0524Z" fill="#112950" fill-opacity="0.05"/>
<path d="M240.67 42.955C244.829 42.5207 247.759 39.7973 245.861 38.1852C243.963 36.5741 246.857 33.9501 241.838 35.047C236.82 36.1444 233.951 43.6546 240.67 42.955Z" fill="#112950" fill-opacity="0.05"/>
<path d="M228.736 115.513C232.37 113.453 233.959 109.787 231.571 109.069C229.184 108.352 230.778 104.792 226.623 107.802C222.468 110.813 222.862 118.839 228.736 115.513Z" fill="#112950" fill-opacity="0.05"/>
<path d="M375.492 147.46C372.838 150.106 372.411 153.09 374.124 154.967C375.836 156.844 378.919 152.237 382.173 151.043C385.427 149.848 385.597 145.241 382.516 143.876C379.432 142.511 377.72 145.241 375.492 147.46Z" fill="#112950" fill-opacity="0.05"/>
<path d="M253.382 53.1326C249.766 59.3559 239.405 59.7295 243.083 63.883C246.761 68.0361 260.248 60.7074 264.907 60.7074C269.566 60.7074 274.225 54.5989 272.999 50.4449C271.774 46.2931 256.079 48.4912 253.382 53.1326Z" fill="#112950" fill-opacity="0.05"/>
<path d="M296.801 2.35822C296.651 6.55297 292.348 9.18415 294.575 13.4494C296.801 17.7156 305.193 11.0605 307.42 7.30692C309.646 3.5529 309.132 -1.05411 306.906 -2.24836C304.679 -3.44303 296.973 -2.4192 296.801 2.35822Z" fill="#112950" fill-opacity="0.05"/>
<path d="M219.507 53.0459C217.39 56.4973 210.088 58.6776 213.685 63.455C217.281 68.2324 221.22 60.7248 225.673 60.0418C230.125 59.3597 229.783 53.388 228.413 51.8525C227.042 50.3153 221.391 49.9744 219.507 53.0459Z" fill="#112950" fill-opacity="0.05"/>
<path d="M267.344 22.1612C264.854 20.3414 260.494 21.6487 259.124 25.4027C257.754 29.1567 258.438 32.2278 261.349 33.9346C264.262 35.6405 263.748 31.7161 266.487 29.498C269.228 27.2795 269.912 24.0372 267.344 22.1612Z" fill="#112950" fill-opacity="0.05"/>
<path d="M193.005 104.7C190.184 108.021 189.066 111.526 190.436 112.72C191.806 113.914 189.75 118.863 194.032 116.815C198.313 114.768 205.164 108.626 204.821 105.212C204.479 101.799 201.396 100.606 199.17 101.458C196.943 102.311 194.888 102.482 193.005 104.7Z" fill="#112950" fill-opacity="0.05"/>
<path d="M212.075 132.641C208.058 135.63 203.46 139.446 203.986 142.345C204.512 145.244 210.975 147.414 217.122 144.79C223.27 142.166 225.542 136.965 223.172 134.017C220.802 131.068 215.938 129.766 212.075 132.641Z" fill="#112950" fill-opacity="0.05"/>
<path d="M251.137 109.963C245.439 113.099 246.513 119.005 247.712 119.517C248.91 120.03 251.993 121.736 259.186 116.617C266.379 111.499 265.009 110.474 263.124 108.597C261.241 106.72 257.645 106.38 251.137 109.963Z" fill="#112950" fill-opacity="0.05"/>
<path d="M190.342 73.2683C186.738 75.3809 185.204 79.0695 187.602 79.7516C189.999 80.435 188.458 84.0174 192.568 80.9472C196.678 77.8748 196.165 69.8555 190.342 73.2683Z" fill="#112950" fill-opacity="0.05"/>
<path d="M198.356 158.548C196.532 162.12 193.43 164.195 191.428 163.182C189.425 162.167 190.847 159.392 192.673 155.819C194.496 152.244 196.032 149.224 198.035 150.238C200.036 151.252 200.18 154.972 198.356 158.548Z" fill="#112950" fill-opacity="0.05"/>
<path d="M182.883 146.108C180.772 147.623 178.372 147.902 177.521 146.727C176.673 145.554 178.315 144.378 180.426 142.862C182.537 141.346 184.318 140.063 185.166 141.237C186.017 142.411 184.994 144.592 182.883 146.108Z" fill="#112950" fill-opacity="0.05"/>
<path d="M237.046 149.273C234.929 152.724 227.627 154.904 231.224 159.681C234.82 164.459 238.759 156.952 243.212 156.269C247.664 155.587 247.321 149.615 245.952 148.079C244.581 146.542 238.93 146.202 237.046 149.273Z" fill="#112950" fill-opacity="0.05"/>
<path d="M268.079 128.29C265.589 126.47 261.229 127.777 259.859 131.531C258.489 135.285 259.173 138.357 262.085 140.063C264.997 141.77 264.483 137.845 267.223 135.627C269.963 133.408 270.648 130.166 268.079 128.29Z" fill="#112950" fill-opacity="0.05"/>
<path d="M332.546 82.3323C329.726 85.6541 328.608 89.1586 329.978 90.3524C331.347 91.5471 329.293 96.4963 333.574 94.4473C337.855 92.4005 344.706 86.258 344.363 82.8448C344.021 79.4321 340.938 78.2382 338.712 79.0912C336.485 79.9438 334.43 80.115 332.546 82.3323Z" fill="#112950" fill-opacity="0.05"/>
<path d="M297.73 105.102C291.765 108.365 284.863 112.631 285.022 116.627C285.181 120.621 293.458 124.751 302.216 122.379C310.975 120.006 315.012 113.442 312.385 109.036C309.756 104.627 303.465 101.963 297.73 105.102Z" fill="#112950" fill-opacity="0.05"/>
<path d="M342.067 103.728C336.369 106.865 337.443 112.771 338.641 113.283C339.84 113.796 342.922 115.501 350.116 110.383C357.308 105.264 355.938 104.24 354.054 102.363C352.171 100.486 348.574 100.145 342.067 103.728Z" fill="#112950" fill-opacity="0.05"/>
<path d="M305.941 69.3187C297.798 74.0918 294.332 82.4269 299.751 83.968C305.167 85.5124 301.683 93.6066 310.971 86.6684C320.259 79.7273 319.099 61.6066 305.941 69.3187Z" fill="#112950" fill-opacity="0.05"/>
<path d="M288.086 139.804C285.949 141.464 283.461 141.846 282.53 140.657C281.599 139.468 283.263 138.18 285.403 136.52C287.541 134.859 289.344 133.454 290.275 134.643C291.205 135.832 290.226 138.142 288.086 139.804Z" fill="#112950" fill-opacity="0.05"/>
<path d="M323.237 121.912C321.854 122.985 320.245 123.232 319.643 122.463C319.041 121.694 320.118 120.863 321.501 119.788C322.884 118.714 324.05 117.806 324.651 118.575C325.253 119.344 324.619 120.838 323.237 121.912Z" fill="#112950" fill-opacity="0.05"/>
<path d="M290.776 98.2823C289.393 99.3554 287.785 99.6032 287.183 98.8339C286.581 98.0651 287.657 97.2325 289.04 96.1585C290.423 95.0841 291.589 94.1763 292.191 94.9452C292.792 95.7144 292.159 97.2083 290.776 98.2823Z" fill="#112950" fill-opacity="0.05"/>
<path d="M304.856 141.554C301.218 147.486 288.667 151.232 294.849 159.443C301.03 167.655 307.8 154.752 315.453 153.578C323.105 152.406 322.517 142.143 320.162 139.503C317.807 136.861 308.093 136.275 304.856 141.554Z" fill="#112950" fill-opacity="0.05"/>
<path d="M344.586 129.965C340.876 127.253 334.377 129.201 332.336 134.796C330.293 140.39 331.313 144.967 335.653 147.511C339.993 150.054 339.227 144.205 343.31 140.9C347.394 137.593 348.414 132.762 344.586 129.965Z" fill="#112950" fill-opacity="0.05"/>
<path d="M304.395 26.0236C302.689 24.7779 299.702 25.6725 298.763 28.245C297.824 30.8163 298.294 32.92 300.288 34.0896C302.283 35.2584 301.931 32.5694 303.807 31.0496C305.685 29.5298 306.154 27.3092 304.395 26.0236Z" fill="#112950" fill-opacity="0.05"/>
</svg>
